<svg width="28" height="28" viewBox="0 0 28 28" fill="none" xmlns="http://www.w3.org/2000/svg">
<rect x="0.5" y="0.5" width="27" height="27" rx="13.5" stroke="#6A0BFF"/>
<path fill-rule="evenodd" clip-rule="evenodd" d="M12.7749 8.55806C13.019 8.80214 13.019 9.19786 12.7749 9.44194L8.84189 13.375H20.6663C21.0115 13.375 21.2913 13.6548 21.2913 14C21.2913 14.3452 21.0115 14.625 20.6663 14.625H8.84189L12.7749 18.5581C13.019 18.8021 13.019 19.1979 12.7749 19.4419C12.5309 19.686 12.1351 19.686 11.8911 19.4419L6.89107 14.4419C6.64699 14.1979 6.64699 13.8021 6.89107 13.5581L11.8911 8.55806C12.1351 8.31398 12.5309 8.31398 12.7749 8.55806Z" fill="#6A0BFF"/>
</svg>
