<svg width="28" height="28" viewBox="0 0 28 28" fill="none" xmlns="http://www.w3.org/2000/svg">
<rect x="0.5" y="-0.5" width="27" height="27" rx="13.5" transform="matrix(1 1.74846e-07 1.74846e-07 -1 8.74228e-08 27)" stroke="#6A0BFF"/>
<path fill-rule="evenodd" clip-rule="evenodd" d="M15.2244 19.4419C15.4685 19.686 15.8642 19.686 16.1083 19.4419L21.1083 14.4419C21.3524 14.1979 21.3524 13.8021 21.1083 13.5581L16.1083 8.55806C15.8642 8.31398 15.4685 8.31398 15.2244 8.55806C14.9803 8.80214 14.9803 9.19787 15.2244 9.44194L19.1575 13.375L7.33301 13.375C6.98783 13.375 6.70801 13.6548 6.70801 14C6.70801 14.3452 6.98783 14.625 7.33301 14.625L19.1575 14.625L15.2244 18.5581C14.9803 18.8021 14.9803 19.1979 15.2244 19.4419Z" fill="#6A0BFF"/>
</svg>
