<svg width="20" height="20" viewBox="0 0 20 20" fill="none" xmlns="http://www.w3.org/2000/svg">
<rect width="20" height="20" rx="10" fill="white"/>
<path d="M10.0166 10.0013C10.0166 8.71264 11.0613 7.66797 12.3499 7.66797C13.6386 7.66797 14.6833 8.71266 14.6833 10.0013C14.6833 11.29 13.6386 12.3346 12.3499 12.3346C11.0612 12.3346 10.0166 11.2899 10.0166 10.0013Z" fill="#00BCFF"/>
<path d="M5.35059 14.6656C5.35059 13.3769 6.39525 12.3323 7.68391 12.3323L8.92737 11.6758L10.0172 12.3323V14.6656C10.0172 15.9543 8.97257 16.9989 7.68391 16.9989C6.39525 16.9989 5.35059 15.9543 5.35059 14.6656Z" fill="#00CF7F"/>
<path d="M10.0168 3L8.74707 5.20582L10.0168 7.66665H12.3173C13.606 7.66665 14.6507 6.62198 14.6507 5.33332C14.6507 4.04467 13.606 3 12.3173 3H10.0168Z" fill="#FF7361"/>
<path d="M5.31738 5.33332C5.31738 6.62198 6.36205 7.66665 7.65071 7.66665L8.88848 8.14473L10.0168 7.66665V3H7.65068C6.36205 3 5.31738 4.04467 5.31738 5.33332Z" fill="#FF4D12"/>
<path d="M5.35059 10.0013C5.35059 11.29 6.39525 12.3346 7.68391 12.3346H10.0172V7.66797H7.68391C6.39525 7.66797 5.35059 8.71266 5.35059 10.0013Z" fill="#B659FF"/>
</svg>
