<svg width="20" height="20" viewBox="0 0 20 20" fill="none" xmlns="http://www.w3.org/2000/svg">
<path d="M10.0176 0.0742188C4.50572 0.0742188 0.0361328 4.61918 0.0361328 10.2261C0.0361328 14.7116 2.89613 18.517 6.86208 19.8594C7.36093 19.9534 7.54407 19.6391 7.54407 19.371C7.54407 19.1289 7.53481 18.3292 7.53051 17.4809C4.75365 18.095 4.1677 16.2831 4.1677 16.2831C3.71365 15.1097 3.05944 14.7976 3.05944 14.7976C2.15382 14.1675 3.1277 14.1805 3.1277 14.1805C4.13002 14.2519 4.65778 15.2267 4.65778 15.2267C5.54803 16.7787 6.99283 16.33 7.56241 16.0706C7.652 15.4146 7.91068 14.9664 8.19613 14.7131C5.97911 14.4564 3.64853 13.5859 3.64853 9.69588C3.64853 8.58751 4.03845 7.68188 4.67696 6.97092C4.57332 6.71505 4.23167 5.68267 4.77365 4.2843C4.77365 4.2843 5.61184 4.01145 7.51927 5.32492C8.31547 5.09998 9.16936 4.98718 10.0176 4.98331C10.8659 4.98718 11.7204 5.09998 12.5181 5.32492C14.4232 4.01145 15.2603 4.2843 15.2603 4.2843C15.8036 5.68267 15.4618 6.71505 15.3581 6.97092C15.9981 7.68188 16.3854 8.58751 16.3854 9.69588C16.3854 13.5951 14.0503 14.4537 11.8277 14.705C12.1857 15.0201 12.5047 15.6379 12.5047 16.585C12.5047 17.9432 12.4932 19.0365 12.4932 19.371C12.4932 19.6412 12.6728 19.9577 13.1788 19.858C17.1426 18.5141 19.9989 14.71 19.9989 10.2261C19.9989 4.61918 15.53 0.0742188 10.0176 0.0742188Z" fill="white"/>
<path d="M3.81615 14.6487C3.79416 14.6993 3.71615 14.7142 3.64507 14.6796C3.57267 14.6465 3.53201 14.5777 3.55548 14.5271C3.57697 14.4752 3.65515 14.4609 3.72739 14.4954C3.79995 14.5286 3.84127 14.5981 3.81615 14.6487Z" fill="white"/>
<path d="M4.22141 15.1096C4.17381 15.1545 4.08075 15.1337 4.01761 15.0627C3.95232 14.9919 3.94009 14.8973 3.98835 14.8517C4.03745 14.8068 4.12769 14.8279 4.19315 14.8986C4.25844 14.9703 4.27116 15.0642 4.22141 15.1096Z" fill="white"/>
<path d="M4.61438 15.6949C4.55323 15.7381 4.45323 15.6976 4.39141 15.6073C4.33025 15.5171 4.33025 15.4088 4.39273 15.3654C4.45471 15.322 4.55323 15.361 4.61587 15.4506C4.67686 15.5423 4.67686 15.6507 4.61438 15.6949Z" fill="white"/>
<path d="M5.15399 16.2569C5.09928 16.3183 4.98275 16.3018 4.89746 16.2181C4.81018 16.1362 4.78589 16.0201 4.84076 15.9587C4.89613 15.8972 5.01332 15.9145 5.09928 15.9975C5.18589 16.0792 5.21233 16.1963 5.15399 16.2569Z" fill="white"/>
<path d="M5.89702 16.585C5.87288 16.6645 5.76065 16.7007 5.64759 16.6669C5.5347 16.6321 5.46082 16.539 5.48363 16.4586C5.5071 16.3786 5.61983 16.3409 5.73371 16.3771C5.84644 16.4117 5.92049 16.5042 5.89702 16.585Z" fill="white"/>
<path d="M6.71408 16.6482C6.71689 16.7319 6.62102 16.8013 6.50235 16.8027C6.38301 16.8055 6.28648 16.7378 6.28516 16.6554C6.28516 16.5708 6.37888 16.5021 6.49821 16.5001C6.61689 16.4977 6.71408 16.565 6.71408 16.6482Z" fill="white"/>
<path d="M7.4744 16.5145C7.48861 16.5962 7.40613 16.6801 7.28828 16.7023C7.17242 16.724 7.06514 16.6736 7.05043 16.5925C7.03605 16.5088 7.12002 16.4249 7.23572 16.4032C7.35374 16.3824 7.45936 16.4315 7.4744 16.5145Z" fill="white"/>
</svg>
